<svg xmlns="http://www.w3.org/2000/svg" width="512" height="512" viewBox="0 0 512 512">
  <!-- Shield - 95% height, centered vertically and horizontally, wider stroke -->
  <g transform="translate(13.067, 12.8) scale(20.267)">
    <svg xmlns="http://www.w3.org/2000/svg" width="24" height="24" viewBox="0 0 24 24" fill="none" stroke="#334155" stroke-width="2" stroke-linecap="round" stroke-linejoin="round" class="lucide lucide-shield-icon lucide-shield"><path d="M20 13c0 5-3.5 7.5-7.66 8.95a1 1 0 0 1-.67-.01C7.5 20.5 4 18 4 13V6a1 1 0 0 1 1-1c2 0 4.5-1.2 6.24-2.72a1.17 1.17 0 0 1 1.52 0C14.51 3.81 17 5 19 5a1 1 0 0 1 1 1z"/></svg>
  </g>
  <!-- Anchor - 45% width, centered inside shield, bigger stroke -->
  <g transform="translate(140.8, 140.8) scale(9.6)">
    <svg xmlns="http://www.w3.org/2000/svg" width="24" height="24" viewBox="0 0 24 24" fill="none" stroke="#334155" stroke-width="2.2" stroke-linecap="round" stroke-linejoin="round" class="lucide lucide-anchor-icon lucide-anchor"><path d="M12 22V8"/><path d="M5 12H2a10 10 0 0 0 20 0h-3"/><circle cx="12" cy="5" r="3"/></svg>
  </g>
</svg>